@startuml
class   Iphone

interface ReprodutorMusical {
    + tocar() : void
    + pausar() : void
    + selecionarMusica() : void
}

interface AparelhoTelefonico {
    + ligar() : void
    + atender() : void
    +iniciarCorreioVoz() : void
}

interface Navegador {
     + exibirPagina() : void
     + adicionarNovaAba() : void
     + atualizarPagina() : void
}

Iphone --> ReprodutorMusical
Iphone --> AparelhoTelefonico
Iphone --> Navegador


@enduml